{
  "accessors": [
    {
      "bufferView": 2,
      "componentType": 5126,
      "count": 13918,
      "max": [
        1.2772059440612793,
        1.2217010259628296,
        2.2690300941467285
      ],
      "min": [
        0,
        0,
        0
      ],
      "type": "VEC3"
    },
    {
      "bufferView": 2,
      "byteOffset": 167016,
      "componentType": 5126,
      "count": 13918,
      "max": [
        0.99992924928665161,
        0.99959069490432739,
        0.99964261054992676
      ],
      "min": [
        -0.99994558095932007,
        -0.99998360872268677,
        -0.99996036291122437
      ],
      "type": "VEC3"
    },
    {
      "bufferView": 3,
      "componentType": 5126,
      "count": 13918,
      "max": [
        0.9999961256980896,
        0.99998617172241211,
        0.99051910638809204,
        1
      ],
      "min": [
        -0.99930989742279053,
        -0.9992024302482605,
        -0.98997515439987183,
        1
      ],
      "type": "VEC4"
    },
    {
      "bufferView": 1,
      "componentType": 5126,
      "count": 13918,
      "max": [
        0.99432599544525146,
        0.99903601408004761
      ],
      "min": [
        0.00062900001648813486,
        0.0039059999398887157
      ],
      "type": "VEC2"
    },
    {
      "bufferView": 0,
      "componentType": 5125,
      "count": 74034,
      "max": [
        13917
      ],
      "min": [
        0
      ],
      "type": "SCALAR"
    },
    {
      "bufferView": 2,
      "byteOffset": 334032,
      "componentType": 5126,
      "count": 14690,
      "max": [
        1.2453289031982422,
        1.2622400522232056,
        2.2712719440460205
      ],
      "min": [
        0,
        0.0011080503463745117,
        0.015313029289245605
      ],
      "type": "VEC3"
    },
    {
      "bufferView": 2,
      "byteOffset": 510312,
      "componentType": 5126,
      "count": 14690,
      "max": [
        0.99970424175262451,
        0.9997023344039917,
        0.99967467784881592
      ],
      "min": [
        -0.99956595897674561,
        -0.99975311756134033,
        -0.99963688850402832
      ],
      "type": "VEC3"
    },
    {
      "bufferView": 3,
      "byteOffset": 222688,
      "componentType": 5126,
      "count": 14690,
      "max": [
        0.99994176626205444,
        0.9997592568397522,
        0.99981355667114258,
        1
      ],
      "min": [
        -0.99463337659835815,
        -0.99994033575057983,
        -0.99839675426483154,
        1
      ],
      "type": "VEC4"
    },
    {
      "bufferView": 1,
      "byteOffset": 111344,
      "componentType": 5126,
      "count": 14690,
      "max": [
        0.98854899406433105,
        0.99601900577545166
      ],
      "min": [
        0.0039059999398887157,
        0.0039059999398887157
      ],
      "type": "VEC2"
    },
    {
      "bufferView": 0,
      "byteOffset": 296136,
      "componentType": 5125,
      "count": 75966,
      "max": [
        14689
      ],
      "min": [
        0
      ],
      "type": "SCALAR"
    }
  ],
  "asset": {
    "extras": {
      "author": "epipolar (https://sketchfab.com/jameswhite)",
      "license": "CC-BY-4.0 (http://creativecommons.org/licenses/by/4.0/)",
      "source": "https://sketchfab.com/models/5b0f419d35f94b648129e6e2305b33ac",
      "title": "Globe Artichoke"
    },
    "generator": "Sketchfab-3.18.6",
    "version": "2.0"
  },
  "bufferViews": [
    {
      "buffer": 0,
      "byteLength": 600000,
      "byteOffset": 0,
      "name": "floatBufferViews",
      "target": 34963
    },
    {
      "buffer": 0,
      "byteLength": 228864,
      "byteOffset": 600000,
      "byteStride": 8,
      "name": "floatBufferViews",
      "target": 34962
    },
    {
      "buffer": 0,
      "byteLength": 686592,
      "byteOffset": 828864,
      "byteStride": 12,
      "name": "floatBufferViews",
      "target": 34962
    },
    {
      "buffer": 0,
      "byteLength": 457728,
      "byteOffset": 1515456,
      "byteStride": 16,
      "name": "floatBufferViews",
      "target": 34962
    }
  ],
  "buffers": [
    {
      "byteLength": 1973184,
      "uri": "scene.bin"
    }
  ],
  "extensionsUsed": [
    "KHR_materials_unlit"
  ],
  "images": [
    {
      "uri": "textures/material_1_baseColor.jpeg"
    },
    {
      "uri": "textures/material_0_baseColor.jpeg"
    }
  ],
  "materials": [
    {
      "doubleSided": true,
      "emissiveFactor": [
        0,
        0,
        0
      ],
      "extensions": {
        "KHR_materials_unlit": {}
      },
      "name": "material_0",
      "pbrMetallicRoughness": {
        "baseColorFactor": [
          1,
          1,
          1,
          1
        ],
        "baseColorTexture": {
          "index": 1,
          "texCoord": 0
        },
        "metallicFactor": 0,
        "roughnessFactor": 1
      }
    },
    {
      "doubleSided": true,
      "emissiveFactor": [
        0,
        0,
        0
      ],
      "extensions": {
        "KHR_materials_unlit": {}
      },
      "name": "material_1",
      "pbrMetallicRoughness": {
        "baseColorFactor": [
          1,
          1,
          1,
          1
        ],
        "baseColorTexture": {
          "index": 0,
          "texCoord": 0
        },
        "metallicFactor": 0,
        "roughnessFactor": 1
      }
    }
  ],
  "meshes": [
    {
      "primitives": [
        {
          "attributes": {
            "NORMAL": 1,
            "POSITION": 0,
            "TANGENT": 2,
            "TEXCOORD_0": 3
          },
          "indices": 4,
          "material": 0,
          "mode": 4
        }
      ]
    },
    {
      "primitives": [
        {
          "attributes": {
            "NORMAL": 6,
            "POSITION": 5,
            "TANGENT": 7,
            "TEXCOORD_0": 8
          },
          "indices": 9,
          "material": 1,
          "mode": 4
        }
      ]
    }
  ],
  "nodes": [
    {
      "children": [
        1
      ],
      "name": "RootNode (gltf orientation matrix)",
      "rotation": [
        -0.70710678118654746,
        -0,
        -0,
        0.70710678118654757
      ]
    },
    {
      "children": [
        2
      ],
      "matrix": [
        0.68341857194900513,
        0,
        0.73002678155899048,
        0,
        0,
        1,
        0,
        0,
        -0.73002678155899048,
        0,
        0.68341857194900513,
        0,
        -1.2398900253174361e-05,
        0,
        -9.4785000328556634e-06,
        1
      ],
      "name": "RootNode (model correction matrix)"
    },
    {
      "children": [
        3,
        4
      ],
      "matrix": [
        1,
        0,
        0,
        0,
        0,
        1,
        0,
        0,
        0,
        0,
        1,
        0,
        -0.63860297203063965,
        -0.63112002611160278,
        -1.1356359720230103,
        1
      ],
      "name": "model.obj.cleaner.gles"
    },
    {
      "mesh": 0,
      "name": ""
    },
    {
      "mesh": 1,
      "name": ""
    }
  ],
  "samplers": [
    {
      "magFilter": 9729,
      "minFilter": 9987,
      "wrapS": 10497,
      "wrapT": 10497
    }
  ],
  "scene": 0,
  "scenes": [
    {
      "name": "OSG_Scene",
      "nodes": [
        0
      ]
    }
  ],
  "textures": [
    {
      "sampler": 0,
      "source": 0
    },
    {
      "sampler": 0,
      "source": 1
    }
  ]
}

